<svg width="64" height="17" viewBox="0 0 64 17" fill="none" xmlns="http://www.w3.org/2000/svg">
<path d="M0 15.4863V12.4456C1.89479 13.3144 3.49808 13.7487 4.6641 13.7487C6.19451 13.7487 6.92327 13.1696 6.92327 12.0836C6.92327 11.5044 6.55889 11.07 5.903 10.5632C5.6115 10.346 4.95561 9.98404 3.93533 9.54965C2.91506 9.11526 2.1863 8.68087 1.74904 8.24648C0.728766 7.37771 0.145753 6.21934 0.145753 4.91617C0.145753 3.613 0.583012 2.52703 1.53041 1.73065C2.4778 0.934267 3.78958 0.499878 5.46574 0.499878C6.8504 0.499878 8.38081 0.861869 10.1298 1.58585L9.03669 4.11979C7.50629 3.5406 6.41314 3.17861 5.6115 3.17861C4.80985 3.25101 4.22684 3.39581 3.93533 3.6854C3.57095 3.97499 3.4252 4.26458 3.4252 4.62657C3.4252 4.98857 3.49808 5.27816 3.64383 5.49535C3.78958 5.71255 4.00821 5.92974 4.29972 6.14694C4.59122 6.36413 5.39287 6.72612 6.63177 7.37771C7.94355 7.95689 8.81806 8.60848 9.40108 9.33246C9.98409 10.0564 10.2027 10.8528 10.2027 11.8664C10.2027 13.242 9.69258 14.4003 8.67231 15.1967C7.65204 15.9931 6.26738 16.4275 4.51835 16.4275C2.76931 16.4275 1.31178 16.1379 0 15.4863Z" fill="#8178D9"/>
<path d="M12.7534 16.2103V4.33698H15.2312L15.6685 5.85734H15.8142C16.543 4.69897 17.7819 4.11979 19.458 4.11979C20.8427 4.11979 21.863 4.48178 22.5917 5.20576C23.3205 5.92974 23.7578 7.08811 23.7578 8.46368V16.2103H20.4783V9.33246C20.4783 8.46368 20.3326 7.81209 20.0411 7.37771C19.7496 6.94332 19.2394 6.72612 18.5835 6.72612C17.709 6.72612 16.9802 7.01572 16.6159 7.5949C16.2515 8.17409 16.0328 9.18766 16.0328 10.5632V16.1379L12.7534 16.2103Z" fill="#8178D9"/>
<path d="M26.3813 10.2736C26.3813 8.31888 26.8915 6.79852 27.9117 5.78495C28.932 4.69897 30.3167 4.11979 32.2115 4.11979C33.3775 4.11979 34.3977 4.33698 35.1994 4.84377C36.0739 5.35056 36.7298 6.07454 37.2399 6.94332C37.6772 7.88449 37.9687 8.97047 37.9687 10.2012C37.9687 12.156 37.4586 13.6763 36.4383 14.7623C35.418 15.8483 33.9605 16.4275 32.1386 16.4275C30.9726 16.4275 29.9523 16.2103 29.0778 15.7035C28.2032 15.1967 27.5474 14.4727 27.0372 13.5316C26.6 12.5904 26.3813 11.5044 26.3813 10.2736ZM30.2438 7.5949C29.8794 8.17409 29.6608 9.04286 29.6608 10.2012C29.6608 11.3596 29.8794 12.3008 30.2438 12.88C30.6082 13.4592 31.2641 13.7487 32.1386 13.7487C33.0131 13.7487 33.669 13.4592 34.0334 12.88C34.3978 12.3008 34.6164 11.432 34.6164 10.2012C34.6164 9.04286 34.3978 8.17409 34.0334 7.5949C33.669 7.01572 33.0131 6.72612 32.1386 6.72612C31.2641 6.72612 30.681 7.01572 30.2438 7.5949Z" fill="#8178D9"/>
<path d="M38.4788 4.33698H41.904L44.2361 11.07C44.5276 11.9388 44.6733 12.7352 44.7462 13.5316H44.8191C44.8191 12.88 45.0377 12.0112 45.3292 11.07L47.5884 4.33698H51.0136L46.3495 16.2103H42.9972L38.4788 4.33698Z" fill="#8178D9"/>
<g opacity="0.5">
<path d="M51.1592 16.2105L52.9082 8.31905H55.0216L53.3455 16.2105H51.1592ZM53.1997 6.4367C53.1997 6.00231 53.3455 5.71272 53.5641 5.49553C53.7827 5.27833 54.0742 5.20593 54.5115 5.20593C55.0945 5.20593 55.4589 5.49553 55.4589 6.07471C55.4589 6.4367 55.386 6.72629 55.1674 7.01589C54.9488 7.23308 54.7301 7.37788 54.2929 7.37788C53.5641 7.30548 53.1997 7.01589 53.1997 6.4367Z" fill="#8178D9"/>
<path d="M56.6978 15.5589C56.1148 14.9797 55.8962 14.2557 55.8962 13.3145C55.8962 12.3734 56.0419 11.5046 56.4063 10.7082C56.7707 9.91181 57.2079 9.33263 57.8638 8.89824C58.5197 8.46385 59.2485 8.24665 60.1959 8.24665C61.0704 8.24665 61.7992 8.53625 62.3093 9.11543C62.8194 9.69462 63.1109 10.4186 63.1109 11.4322C63.1109 12.4457 62.9652 13.3145 62.6008 14.0385C62.2364 14.7625 61.7992 15.4141 61.1433 15.8485C60.4874 16.2829 59.7586 16.5 58.8841 16.5C58.0096 16.5 57.2808 16.0657 56.6978 15.5589ZM58.0096 13.3145C58.0096 14.1833 58.374 14.6177 59.1027 14.6177C59.4671 14.6177 59.7586 14.4729 60.0501 14.1833C60.3416 13.8937 60.5603 13.4593 60.706 12.9525C60.8518 12.4457 60.9246 11.8666 60.9246 11.2874C60.9246 10.3462 60.5603 9.91181 59.9044 9.91181C59.54 9.91181 59.2485 10.0566 58.957 10.3462C58.6655 10.6358 58.4468 11.0702 58.3011 11.577C58.1553 12.1562 58.0096 12.7353 58.0096 13.3145Z" fill="#8178D9"/>
</g>
</svg>
